<?xml version="1.0" encoding="UTF-8" standalone="no"?><!DOCTYPE svg PUBLIC "-//W3C//DTD SVG 1.1//EN" "http://www.w3.org/Graphics/SVG/1.1/DTD/svg11.dtd"><svg width="100%" height="100%" viewBox="0 0 996 1146" version="1.1" xmlns="http://www.w3.org/2000/svg" xmlns:xlink="http://www.w3.org/1999/xlink" xml:space="preserve" xmlns:serif="http://www.serif.com/" style="fill-rule:evenodd;clip-rule:evenodd;stroke-linecap:round;stroke-linejoin:round;stroke-miterlimit:1.5;"><path d="M475.533,11.783c12.63,-7.291 28.188,-7.291 40.813,0c80.392,46.413 374.737,216.35 455.129,262.767c12.625,7.292 20.404,20.762 20.404,35.346l0,525.533c0,14.583 -7.779,28.054 -20.404,35.346c-80.392,46.413 -374.738,216.354 -455.129,262.767c-12.625,7.291 -28.183,7.291 -40.813,-0c-80.391,-46.413 -374.733,-216.355 -455.125,-262.767c-12.629,-7.292 -20.408,-20.762 -20.408,-35.346l-0,-525.533c-0,-14.584 7.779,-28.054 20.408,-35.346c80.392,-46.417 374.734,-216.354 455.125,-262.767Z" style="fill:#6c757d;"/><path d="M475.533,11.783c12.63,-7.291 28.188,-7.291 40.813,0c80.392,46.413 374.737,216.35 455.129,262.767c12.625,7.292 20.404,20.762 20.404,35.346l0,525.533c0,14.583 -7.779,28.054 -20.404,35.346c-80.392,46.413 -374.738,216.354 -455.129,262.767c-12.625,7.291 -28.183,7.291 -40.813,-0c-80.391,-46.413 -374.733,-216.355 -455.125,-262.767c-12.629,-7.292 -20.408,-20.762 -20.408,-35.346l-0,-525.533c-0,-14.584 7.779,-28.054 20.408,-35.346c80.392,-46.417 374.734,-216.354 455.125,-262.767Z" style="fill:#6c757d;"/><path d="M983.679,285.371c5.242,6.954 8.2,15.529 8.2,24.525l0,525.533c0,14.584 -7.779,28.054 -20.404,35.346c-80.392,46.413 -374.738,216.354 -455.129,262.767c-12.625,7.291 -28.183,7.291 -40.813,-0c-80.391,-46.413 -374.733,-216.354 -455.125,-262.767c-5.741,-3.312 -10.479,-7.908 -13.929,-13.308l977.2,-572.096Z" style="fill:#737d86;"/><path d="M9.475,857.467l489.458,-288.279c3.246,4.329 411.209,235.745 492.042,281.166c0.325,0.184 0.625,0.321 0.904,0.396c-3.35,8.3 -9.408,15.404 -17.412,20.025c-80.392,46.413 -374.734,216.354 -455.125,262.767c-12.63,7.291 -28.184,7.291 -40.813,-0c-80.392,-46.413 -374.737,-216.354 -455.129,-262.767c-5.738,-3.312 -10.479,-7.908 -13.925,-13.308Z" style="fill:#616971;"/><path d="M991.879,309.75l0,525.538l-0.008,0.283l0.008,-2.771l0,-523.05Z" style="fill:#e7e8e9;fill-opacity:0.57;"/><path d="M825.367,758.563c-64.679,113.187 -186.588,189.545 -326.188,189.545c-207.212,0 -375.441,-168.233 -375.441,-375.445c-0,-207.213 168.229,-375.446 375.441,-375.446c138.317,-0 259.263,74.958 324.371,186.425l-162.146,94.662c-32.504,-55.829 -93.017,-93.362 -162.225,-93.362c-103.604,-0 -187.721,84.112 -187.721,187.72c0,103.609 84.117,187.721 187.721,187.721c70.496,0 131.967,-38.941 164.029,-96.491l162.159,94.67Z" style="fill:#fff;stroke:#3f4549;stroke-width:2.92px;"/></svg>