<?xml version="1.0" encoding="UTF-8" standalone="no"?><!DOCTYPE svg PUBLIC "-//W3C//DTD SVG 1.1//EN" "http://www.w3.org/Graphics/SVG/1.1/DTD/svg11.dtd"><svg width="100%" height="100%" viewBox="0 0 239 275" version="1.1" xmlns="http://www.w3.org/2000/svg" xmlns:xlink="http://www.w3.org/1999/xlink" xml:space="preserve" xmlns:serif="http://www.serif.com/" style="fill-rule:evenodd;clip-rule:evenodd;stroke-linecap:round;stroke-linejoin:round;stroke-miterlimit:1.5;"><path d="M114.128,2.828c3.031,-1.75 6.765,-1.75 9.795,-0c19.294,11.139 89.937,51.924 109.231,63.064c3.03,1.75 4.897,4.983 4.897,8.483l0,126.128c0,3.5 -1.867,6.733 -4.897,8.483c-19.294,11.139 -89.937,51.925 -109.231,63.064c-3.03,1.75 -6.764,1.75 -9.795,0c-19.294,-11.139 -89.936,-51.925 -109.23,-63.064c-3.031,-1.75 -4.898,-4.983 -4.898,-8.483l0,-126.128c0,-3.5 1.867,-6.733 4.898,-8.483c19.294,-11.14 89.936,-51.925 109.23,-63.064Z" style="fill:#b4b4b4;"/><path d="M236.083,68.489c1.258,1.669 1.968,3.727 1.968,5.886l0,126.128c0,3.5 -1.867,6.733 -4.897,8.483c-19.294,11.139 -89.937,51.925 -109.231,63.064c-3.03,1.75 -6.764,1.75 -9.795,0c-19.294,-11.139 -89.936,-51.925 -109.23,-63.064c-1.378,-0.795 -2.515,-1.898 -3.343,-3.194l234.528,-137.303Z" style="fill:#a6a6a6;"/><path d="M2.274,205.792l117.47,-69.187c0.779,1.039 98.69,56.579 118.09,67.48c0.078,0.044 0.15,0.077 0.217,0.095c-0.804,1.992 -2.258,3.697 -4.179,4.806c-19.294,11.139 -89.936,51.925 -109.23,63.064c-3.031,1.75 -6.764,1.75 -9.795,0c-19.294,-11.139 -89.937,-51.925 -109.231,-63.064c-1.377,-0.795 -2.515,-1.898 -3.342,-3.194Z" style="fill:#828282;"/><path d="M238.051,74.34l0,126.129l-0.002,0.068l0.002,-0.665l0,-125.532Z" style="fill:#e7e8e9;fill-opacity:0.57;"/><path d="M198.088,182.055c-15.523,27.165 -44.781,45.491 -78.285,45.491c-49.731,-0 -90.106,-40.376 -90.106,-90.107c-0,-49.731 40.375,-90.107 90.106,-90.107c33.196,0 62.223,17.99 77.849,44.742l-38.915,22.719c-7.801,-13.399 -22.324,-22.407 -38.934,-22.407c-24.865,-0 -45.053,20.187 -45.053,45.053c-0,24.866 20.188,45.053 45.053,45.053c16.919,0 31.672,-9.346 39.367,-23.158l38.918,22.721Z" style="fill:#fff;stroke:#231f20;stroke-width:0.7px;"/></svg>